<svg xmlns="http://www.w3.org/2000/svg" viewBox="0 0 100 100"><polygon points="50,2 91.57,26 91.57,74 50,98 8.43,74 8.43,26" fill="#2A2A33"/><polygon points="50,50 50,9 85.51,29.5" fill="#D8322B" stroke="#2A2A33" stroke-width="3.4" stroke-linejoin="round"/><polygon points="50,50 85.51,29.5 85.51,70.5" fill="#FFFFFF" stroke="#2A2A33" stroke-width="3.4" stroke-linejoin="round"/><polygon points="50,50 85.51,70.5 50,91" fill="#2C64B0" stroke="#2A2A33" stroke-width="3.4" stroke-linejoin="round"/><polygon points="50,50 50,91 14.49,70.5" fill="#FFFFFF" stroke="#2A2A33" stroke-width="3.4" stroke-linejoin="round"/><polygon points="50,50 14.49,70.5 14.49,29.5" fill="#2A7D38" stroke="#2A2A33" stroke-width="3.4" stroke-linejoin="round"/><polygon points="50,50 14.49,29.5 50,9" fill="#FFFFFF" stroke="#2A2A33" stroke-width="3.4" stroke-linejoin="round"/><polygon points="50,41 57.79,45.5 57.79,54.5 50,59 42.21,54.5 42.21,45.5" fill="#2A2A33"/></svg>